# File generated by ImageToStl.com - Free Image and 3D model conversion tools

mtllib maxwell.mtl

# Maxwell_0
o obj1
v 73.24857116 165.91697243 -108.90592249
v 84.94862914 143.92903166 -73.34377058
v 80.52558303 115.05749763 -149.95689062
v 5.42044491 16.42928339 107.98848404
v -19.05988455 4.20506957 119.73551393
v 12.11753637 1.9297471 99.59869926
v -30.69672585 135.4457228 157.9717254
v -15.45763612 117.15034623 140.08971724
v -5.83388805 142.87210419 158.9587643
v -0.86255968 118.8717637 138.58643993
v 61.14444733 -1.24106321 -49.09452165
v 87.48730421 2.83998528 -13.93617621
v 69.42591667 -4.7572992 -6.35657623
v 9.83985364 -5.30312063 5.2138716
v -56.17631078 -6.68171993 -15.0020506
v -48.92792702 -9.80585706 22.29624071
v -47.5513041 -5.2544469 79.88981753
v 65.69272876 -3.0528684 63.7683281
v 21.98594064 -2.73615646 76.50468427
v 83.66165757 2.19328681 58.69796214
v 87.48730421 2.83998528 -13.93617621
v 73.32543731 11.40126108 91.34618914
v 58.80218744 8.59023748 101.88109632
v 38.00922632 11.07463945 112.12310479
v 24.42031205 11.33613712 112.7112595
v 12.11753637 1.9297471 99.59869926
v -19.05988455 4.20506957 119.73551393
v 87.24652529 116.834323 -69.02889329
v 84.94862914 143.92903166 -73.34377058
v 89.76771832 136.91797206 -1.80054296
v 87.39588857 110.54774502 -0.75101991
v 75.85827708 120.61443595 51.67231733
v 79.63514328 109.41186349 56.35203016
v 33.71153176 221.10686968 108.11942538
v 11.77620292 222.70059806 92.30432784
v 14.88835514 225.78230736 113.97391148
v 33.70506465 224.84284375 117.39409779
v 55.62377572 222.7845725 104.42520055
v 84.86053348 235.41301034 110.64411913
v 62.78217435 215.41508187 117.93638351
v 22.01396525 217.27446311 126.52965615
v 13.96900713 211.13923951 132.52121214
v 39.43631649 206.3590398 123.45136542
v 43.48558187 190.69615654 128.60035285
v 62.70710826 195.00842824 110.38388473
v 65.39007425 208.50449393 112.32130605
v 60.23063064 176.26704908 117.48782192
v 31.85629845 191.84383441 136.93323683
v 47.57306576 172.01827887 131.09323894
v 13.81936967 181.01654897 156.69231076
v 46.13164663 161.20433979 132.83652287
v 26.64151788 160.15790225 152.13160765
v 10.64390093 192.20389883 153.54173721
v 0.92275888 219.06441178 117.11699743
v -11.07322574 204.66925365 143.03423352
v 8.26979727 204.57941763 143.40335319
v 1.43098086 225.51825544 102.13863448
v 9.69831273 225.34053779 100.5676349
v -1.13332272 220.95649151 81.26411165
v 4.18105721 187.63430877 153.63351773
v -17.92531312 213.0351659 125.47515581
v 14.03848231 169.05117948 159.11492108
v 1.44774914 171.72178962 159.78758259
v 20.17062306 148.14816349 156.09902732
v 28.48494947 148.31734362 150.10389673
v -5.40809333 163.0962595 163.62502742
v -36.79707646 159.89820749 161.63912077
v -51.94944739 163.40039664 158.22506109
v -43.34226549 130.94225569 149.41253544
v -52.40543485 127.14151411 136.22227896
v -23.48607779 175.14899379 148.10715741
v -28.19347084 196.86344078 141.21199061
v -31.81964755 178.10963954 146.68122273
v -37.27629185 205.8477781 134.44137726
v -42.09389985 186.28496472 145.9160756
v -30.46132326 213.43937845 117.30015217
v -26.54811144 217.23461196 86.10861729
v -52.20398903 205.39031549 102.93024944
v -52.31304169 195.44955247 118.0629298
v -46.44355774 177.52553673 142.63894318
v -23.21131974 214.67442102 69.97251414
v -5.1703617 214.52588636 70.35479454
v -16.19427949 204.27747997 43.40069491
v -57.95638561 158.31559237 145.62350813
v -59.14999247 204.30896292 84.85449153
v -47.44461179 174.4368571 133.06779708
v -69.68918443 153.6865922 116.97913841
v -65.80938697 135.7783414 118.694887
v -76.18214488 150.1735482 96.2731653
v -77.63127089 159.93786083 92.47685331
v -60.66772342 163.23494919 127.02111169
v -70.64092159 166.62184724 110.18452712
v -63.4781301 176.98140685 103.6804892
v -57.30194449 192.75409554 104.72689197
v -57.76647925 190.76650217 87.14983446
v -74.57934022 168.74601592 75.6761194
v -63.07479143 179.55053603 68.83238257
v -74.73165989 163.12814612 72.47918414
v -74.86712337 149.66081159 76.64981434
v -72.29756713 152.56799062 70.40262686
v -76.18214488 150.1735482 96.2731653
v -59.39903259 190.50745667 73.97157539
v -58.05544257 186.50342741 60.50453289
v -55.67800403 171.84658563 60.42787353
v -60.48781276 202.95912357 53.92447944
v -58.28403831 208.03269682 61.18281575
v -26.39089525 215.65038046 45.11227484
v -52.51640081 214.47170696 32.45422154
v -36.29459441 219.55371743 29.76433997
v -54.06509638 224.01440612 16.61157099
v -51.81583762 194.29432173 42.93298008
v -50.8225143 179.11024282 48.91460253
v -56.77532554 145.4163813 50.49984525
v -60.1174593 160.13845769 62.21958649
v -63.13173175 139.03611057 54.68951713
v -58.60746503 149.33988454 63.45630247
v -49.74617958 143.91494457 65.64638131
v -49.2846787 136.54454514 69.16489921
v -46.56065106 116.57776702 79.87529327
v -45.36441565 186.52698717 32.45694739
v -33.47936869 195.70905879 32.19925008
v -35.37843227 190.11904723 25.59113503
v -59.93713737 173.64188398 41.03860128
v -65.01874328 138.80821425 40.77076572
v -71.39555216 131.92848544 20.45446041
v -47.66581655 179.26018517 9.87757975
v -57.67337084 164.41082168 14.37330525
v -65.24080038 142.99600517 13.9158516
v -62.53229976 161.30582322 -34.19511697
v -85.93320251 163.85407093 -97.08323333
v -47.64887691 174.49343343 -37.34709775
v -50.88072419 190.14148275 -99.99659658
v -37.20990419 183.30786394 5.88437884
v -32.80798495 186.0946182 -40.99486952
v 1.51518583 189.03703643 -1.66241253
v -13.72750998 191.23412861 17.38149493
v 3.05693448 187.39592266 15.1908167
v 26.80795193 183.44769773 10.46403239
v -6.72530979 199.66254105 -46.8441096
v 27.52701938 193.78265942 -13.91778393
v 51.93551779 182.55620085 2.9073148
v 39.8529619 178.74114372 37.24487745
v 52.04101205 167.19628456 38.1153529
v 18.64735484 202.73798585 -46.46146057
v 66.4339602 175.12149977 5.90509749
v 65.93201756 141.19820591 42.10814426
v 80.60030341 160.20265859 1.47544841
v 55.96231222 192.74963305 -78.66559102
v 41.39882922 201.63817556 -79.18007698
v 13.51617128 208.93444761 -93.50075656
v 46.48876488 198.00907832 -110.51375492
v 18.06049943 203.4544815 -130.5180766
v -5.02366275 203.56043461 -130.86700222
v -7.97646642 207.46135313 -98.62929475
v -57.93642402 187.24964781 -129.46970977
v -8.95247757 189.31545274 -159.97298337
v -53.29982638 176.98409956 -154.89880071
v -16.50137305 174.51504105 -181.91473639
v -76.54112577 169.34227483 -143.06762228
v -85.2576077 167.4922248 -119.63775115
v -94.75474954 150.26268926 -127.91935869
v -88.68686557 126.00302811 -164.95853641
v -106.21504784 117.24292918 -137.89531916
v -90.73783755 97.43897203 -173.11566241
v -104.52616215 75.85500584 -144.17327398
v -100.27258396 142.15037647 -90.72862702
v -107.46767521 123.14427953 -89.38819664
v -91.17645621 135.07725204 -35.02334591
v -113.79134655 88.69625496 -99.76530193
v -109.34679508 40.76879826 -108.92561632
v -100.12514591 31.71791327 -141.12482966
v -87.78124452 6.2070596 -135.00864681
v -89.47251439 5.72070952 -102.09052724
v -82.72107244 4.79024225 -48.04357425
v -104.4008255 59.58273229 -48.69771493
v -73.38880897 2.97321332 -14.20303965
v -98.60793948 79.00697249 9.09049666
v -109.03406143 98.72742449 -36.82030245
v -104.16529179 117.8405782 -35.05317317
v -94.03717518 109.7660917 6.31428542
v -98.75041842 91.25514325 10.43001148
v -77.488482 116.30163012 35.84128317
v -71.15206122 104.25242545 55.00353614
v -44.4760263 93.51486552 105.22069677
v -61.93637848 90.52791971 76.68576667
v -37.90654838 107.79986847 101.01867257
v 0.01588166 85.43945084 110.20262215
v -41.03432596 121.80716373 104.82655903
v -62.76587248 134.94753916 87.29686506
v -47.62941599 123.77052023 116.69935072
v -65.75410962 133.85187872 101.68145695
v -66.93740487 142.74048489 73.30005314
v 6.17835969 111.26426427 125.64729889
v 25.20368993 95.75432405 122.01159875
v 30.45397103 119.62766845 133.77477132
v 57.9300344 103.17610357 121.61540458
v 56.20464683 126.86412344 127.10696456
v 40.26484787 141.52041927 135.75496257
v 58.90751481 76.47575583 121.35036218
v 20.77147961 72.10045951 123.15919749
v 58.68243575 33.15856701 114.29938335
v 0.8913666 55.99845798 110.95813125
v -29.39582467 53.69661688 114.07084142
v 33.1287384 55.1860193 119.57546108
v 16.39317274 50.34100586 111.7502905
v 25.85437894 40.77857613 122.5274567
v 58.80218744 8.59023748 101.88109632
v 38.00922632 11.07463945 112.12310479
v 8.03827941 38.31608401 119.94294039
v 24.42031205 11.33613712 112.7112595
v 3.00214589 36.86003738 107.52315673
v 0.26397705 33.51151773 110.14677533
v 2.89005339 33.37027161 117.221501
v -45.08117437 36.11962252 118.06310588
v -42.88205206 3.66281071 117.03864233
v -54.83236313 6.14958478 106.89881867
v -57.14222193 33.88583594 103.29214571
v -62.07206249 24.46349699 68.26801206
v -60.10560393 -1.90435525 76.31262595
v -65.52397013 -5.40422982 26.47306476
v -68.38700175 74.54982963 62.20891161
v -72.3081708 21.4824775 24.34216579
v -83.50531459 62.37343694 26.25517278
v -30.1001519 119.07771928 130.37617423
v -39.86676931 209.23472138 24.34749512
v 62.86261082 160.50081007 118.05275919
v 64.75687623 176.60637379 101.42457271
v 74.24048185 150.37285727 107.10981418
v 74.06606674 137.94843766 113.1158678
v 80.39750457 139.67729828 85.24478906
v 84.6274972 124.21336442 94.00523377
v 65.37554264 155.07807456 74.74034822
v 54.9705863 163.2361965 69.21966239
v 49.626261 197.6284625 85.15894798
v 57.26659894 189.4531392 92.57755299
v 62.79414296 200.0600868 103.34691125
v 52.97205448 209.47037176 99.842078
v 69.29607987 208.92670734 105.03619975
v 62.7536118 217.49332448 102.10667673
v 36.76713109 209.46276388 91.58300212
v 1.69459134 209.26396382 68.03293881
v 49.58336353 146.94104286 130.01390126
v 21.06523365 129.03165011 140.45151408
v -47.5513041 -5.2544469 79.88981753
v -48.92792702 -9.80585706 22.29624071
v -56.17631078 -6.68171993 -15.0020506
v -75.19314885 -3.64651023 -98.19401996
v -56.18416667 -4.30617551 -119.97927306
v -13.03517222 -3.8976314 -77.41420159
v 61.14444733 -1.24106321 -49.09452165
v 55.58481216 -1.48854814 -72.2714718
v -20.4855442 0.48747289 -130.44116511
v 41.18492305 12.28486921 -144.33250774
v -63.30525875 3.24241618 -156.2588224
v -35.32660604 5.88079077 -165.68019556
v -85.70118546 23.5457285 -158.8714666
v -66.74538851 23.21557239 -174.81828391
v -88.76106143 57.42573068 -171.6373844
v -65.48175216 59.54096169 -195.41347515
v 28.50638926 23.37715644 -173.66584007
v 47.73060977 25.62750467 -162.37458714
v 57.72097707 61.56512358 -195.14356204
v -35.82257926 22.45359313 -188.67893852
v -19.43572015 20.74243811 -187.0757996
v -69.24571395 102.78493664 -193.6124734
v -30.76449931 48.5419361 -211.90947472
v -66.66868329 137.77703881 -181.71446634
v -28.9568603 153.68160469 -194.99220416
v 39.51466084 58.21047435 -210.91787073
v 7.26221204 47.2492324 -215.96197031
v -16.59017205 47.87573977 -216.06770912
v -20.15614808 64.10073299 -223.28545471
v -21.37680352 81.72515305 -222.8283159
v -20.32840252 108.27725983 -216.31193832
v 13.5589987 112.08834581 -213.65066353
v -10.99970341 157.83454622 -195.58269662
v 10.40760279 62.20188389 -223.5856947
v 10.52768826 79.91056686 -223.74956478
v 42.43713319 80.57490557 -212.35022434
v 61.24605536 82.61470033 -196.01780123
v 43.42774153 113.17756422 -202.56372307
v 65.68316817 119.30111323 -180.49611835
v 41.88675582 161.77401308 -177.32516323
v 60.53163409 164.91890448 -151.48799304
v 39.06912208 185.27344971 -151.08938676
v 13.29576969 158.82113527 -191.89164351
v 15.05170465 177.68155186 -174.33637625
v 60.53163409 164.91890448 -151.48799304
v 65.5505836 183.7559103 -84.86454307
v 80.43685555 161.8458722 -51.41002334
v 84.94862914 143.92903166 -73.34377058
v 89.76771832 136.91797206 -1.80054296
v 84.94862914 143.92903166 -73.34377058
v 65.93201756 141.19820591 42.10814426
v 73.40990305 130.54701213 46.6235925
v 80.39750457 139.67729828 85.24478906
v 65.37554264 155.07807456 74.74034822
v 84.6274972 124.21336442 94.00523377
v 88.66018057 80.40356465 78.4543645
v 86.09190583 91.08554757 106.92113452
v 85.08855104 63.10176871 106.38906368
v 82.51051307 88.06813988 1.15162183
v 80.21748662 86.69867173 -33.26677742
v 92.17714667 57.98347171 69.55701265
v 77.68636942 32.55418358 99.21157038
v 90.04423022 23.82221058 62.83797546
v 73.32543731 11.40126108 91.34618914
v 83.66165757 2.19328681 58.69796214
v 86.58064604 60.12580331 -2.24892107
v 91.89637303 22.71932839 -9.54576105
v 87.48730421 2.83998528 -13.93617621
v 82.76449442 28.44745128 -66.59676043
v 82.50538707 83.64787016 -87.55257701
v 76.02909207 75.72303556 -163.97855034
v 72.08845615 55.23823421 -150.67063936
v 80.58268428 60.73512537 -80.87770268
v 61.58029437 25.77045581 -136.59016621
v 79.07869816 24.16067554 -79.81320705
v 52.7449429 10.18357855 -127.39913751
v 73.35585356 5.28107675 -78.63645703
v 61.14444733 -1.24106321 -49.09452165
v 55.58481216 -1.48854814 -72.2714718
v 41.18492305 12.28486921 -144.33250774
v 47.73060977 25.62750467 -162.37458714
v 61.24605536 82.61470033 -196.01780123
v 86.09190583 91.08554757 106.92113452
v 84.6274972 124.21336442 94.00523377
v 74.06606674 137.94843766 113.1158678
v 56.20464683 126.86412344 127.10696456
v 57.9300344 103.17610357 121.61540458
v 86.09190583 91.08554757 106.92113452
v 58.90751481 76.47575583 121.35036218
v 85.08855104 63.10176871 106.38906368
v 58.68243575 33.15856701 114.29938335
v 77.68636942 32.55418358 99.21157038
v 58.80218744 8.59023748 101.88109632
v 73.32543731 11.40126108 91.34618914
v -42.90082157 125.33133261 134.95390455
v 6.17835969 111.26426427 125.64729889
v 80.52558303 115.05749763 -149.95689062
v 65.68316817 119.30111323 -180.49611835
v 73.24857116 165.91697243 -108.90592249
v 6.17835969 111.26426427 125.64729889
vn 0.87178 0.19591 0.44902
vn 0.97377 0.08605 0.21064
vn 0.96179 0.24328 0.12562
vn 0.15934 -0.95559 -0.2479
vn 0.16287 -0.83244 -0.52963
vn 0.14181 -0.51828 -0.84337
vn -0.15272 -0.84496 -0.51255
vn -0.10471 -0.47559 -0.87341
vn 0.11849 -0.90246 -0.41416
vn 0.16156 -0.69262 -0.70297
vn 0.16517 0.06722 -0.98397
vn 0.75641 0.08806 -0.64814
vn 0.18484 0.03733 -0.98206
vn 0.03229 0.01148 -0.99941
vn -0.20245 0.02421 -0.97899
vn -0.11762 -0.00392 -0.99305
vn -0.1438 -0.16993 -0.97491
vn 0.2079 -0.18303 -0.96087
vn 0.06288 -0.16944 -0.98353
vn 0.71768 -0.17988 -0.67274
vn 0.64531 -0.49066 -0.58551
vn 0.33097 -0.62133 -0.71021
vn 0.19399 -0.76422 -0.61509
vn -0.05576 -0.78102 -0.62201
vn 0.99805 0.03899 -0.04873
vn 0.9681 -0.1439 0.20513
vn 0.99764 -0.04561 -0.05141
vn 0.98605 -0.01106 0.16608
vn 0.9929 0.02706 0.11586
vn 0.11409 0.47686 0.87154
vn 0.30921 0.40943 0.85834
vn -0.05397 -0.24969 0.96682
vn 0.05399 -0.29244 0.95476
vn -0.1751 0.82117 0.54315
vn 0.80335 -0.0243 0.59501
vn 0.34315 -0.93163 -0.1196
vn 0.10176 -0.77684 0.62142
vn 0.16547 -0.66411 0.72909
vn 0.3835 -0.90797 0.16887
vn 0.5804 -0.7509 0.31508
vn 0.88369 -0.46737 -0.02558
vn 0.64107 -0.67133 -0.37196
vn 0.79734 -0.56863 0.20224
vn 0.56238 -0.69047 0.45495
vn 0.64914 -0.74715 0.14276
vn 0.33058 -0.89664 0.29453
vn 0.65338 -0.75504 0.05485
vn 0.62512 -0.77455 0.09643
vn 0.19054 -0.86695 0.46053
vn -0.16158 -0.46361 0.87118
vn -0.15277 -0.73132 0.66471
vn 0.20146 -0.65918 0.72449
vn -0.15648 -0.04874 0.98648
vn 0.17711 0.16389 0.97045
vn 0.10873 0.39875 0.91059
vn -0.21387 -0.92114 0.32522
vn -0.14075 -0.39667 0.90711
vn 0.3461 -0.93096 0.11633
vn -0.066 -0.91563 0.39656
vn 0.389 -0.86543 -0.31577
vn 0.61051 -0.74441 -0.27043
vn 0.02318 -0.9933 0.11318
vn -0.12304 -0.97046 0.20751
vn -0.60204 -0.76084 0.24224
vn -0.41838 -0.62754 -0.65662
vn -0.5706 -0.36992 -0.73319
vn -0.1711 -0.84222 0.51127
vn -0.17791 -0.9093 0.3762
vn 0.06321 -0.90357 0.42375
vn -0.44827 -0.54887 0.70554
vn -0.4293 -0.78395 0.44847
vn -0.32064 -0.21075 0.92346
vn -0.3029 0.08564 0.94917
vn -0.70824 -0.17916 0.68286
vn -0.85514 -0.37164 0.3614
vn -0.92486 -0.14036 0.35346
vn -0.08791 0.17807 0.98008
vn 0.20328 0.46777 0.86016
vn 0.32588 0.50636 0.79837
vn -0.91781 -0.37601 0.12746
vn -0.83853 -0.1725 0.51684
vn -0.92146 -0.23767 0.3073
vn -0.90925 -0.41358 0.04709
vn -0.81359 -0.29145 -0.50312
vn -0.95685 -0.12522 -0.26223
vn -0.98066 -0.10944 0.16225
vn -0.77465 -0.38742 0.49982
vn -0.83112 -0.34152 0.43886
vn -0.8277 -0.28109 0.4857
vn -0.89934 -0.14843 0.41129
vn -0.94209 -0.05119 0.33143
vn -0.8896 0.22433 0.39785
vn -0.84494 0.4208 0.33016
vn -0.84374 0.52986 0.08571
vn -0.87993 0.27096 -0.39027
vn -0.68879 0.6776 -0.25774
vn -0.9937 -0.0294 0.10813
vn -0.93429 0.34231 -0.09963
vn -0.82578 0.55839 0.07933
vn -0.97612 0.20452 0.07321
vn -0.64404 -0.07371 0.76143
vn 0.41147 0.24604 0.87759
vn -0.89003 0.20274 0.40835
vn 0.53656 0.2411 0.80868
vn -0.55206 0.66062 0.50874
vn -0.80316 0.55416 -0.21872
vn -0.97542 0.18927 0.11287
vn -0.93219 -0.15874 0.32531
vn -0.72352 0.67602 0.13967
vn -0.87541 -0.36107 0.32136
vn -0.85067 0.41815 -0.31861
vn -0.87708 -0.05024 -0.47771
vn -0.95789 -0.04748 -0.28319
vn -0.91174 -0.40575 -0.06401
vn -0.67518 0.3635 0.64187
vn -0.01292 0.89523 0.44541
vn -0.34611 0.38207 0.85687
vn -0.88195 -0.20821 0.42286
vn -0.89323 -0.158 0.42092
vn -0.80903 -0.19308 0.55516
vn -0.64902 0.12382 0.75063
vn -0.90376 0.06572 0.42296
vn -0.90367 -0.0759 0.42145
vn -0.69783 -0.17601 0.6943
vn -0.70971 -0.1386 0.69073
vn -0.61481 -0.10132 0.78214
vn -0.47578 -0.09417 0.87451
vn -0.37763 0.11518 0.91877
vn -0.42907 -0.13627 0.89293
vn -0.05079 -0.15865 0.98603
vn -0.02907 0.30959 0.95043
vn 0.22619 0.07141 0.97146
vn 0.18295 -0.11857 0.97595
vn -0.23028 -0.17712 0.95687
vn 0.14512 -0.25742 0.95534
vn 0.35055 -0.23685 0.9061
vn 0.44582 0.14669 0.88302
vn 0.76669 -0.12184 0.63035
vn 0.08 -0.18894 0.97872
vn 0.64156 -0.27601 0.71569
vn 0.84217 -0.14859 0.51834
vn 0.82845 -0.22998 0.51067
vn 0.60728 -0.03813 0.79357
vn 0.37237 -0.05337 0.92655
vn 0.07585 -0.00371 0.99711
vn 0.52868 0.18771 0.82781
vn 0.18083 0.31118 0.93299
vn -0.14437 0.27093 0.95171
vn -0.2233 -0.01843 0.97457
vn -0.45323 0.18582 0.87181
vn -0.09716 0.48285 0.8703
vn -0.41249 0.5168 0.75018
vn -0.15895 0.65389 0.7397
vn -0.65294 0.40351 0.64097
vn -0.73364 0.05479 0.67733
vn -0.86714 0.20307 0.45479
vn -0.76646 0.54703 0.33659
vn -0.93471 0.27918 0.21996
vn -0.79958 0.59549 0.07789
vn -0.94167 0.3326 -0.05128
vn -0.85473 -0.09221 0.51082
vn -0.94814 -0.03299 0.31614
vn -0.76663 -0.23864 0.59609
vn -0.99931 0.03234 0.01842
vn -0.96153 0.03035 -0.27301
vn -0.89703 0.30984 -0.31516
vn -0.62033 0.25072 -0.74319
vn -0.74061 -0.01055 -0.67185
vn -0.74361 -0.14326 -0.65308
vn -0.95384 -0.16622 -0.2501
vn -0.74101 -0.13048 -0.6587
vn -0.93556 -0.30782 -0.17313
vn -0.9872 -0.15003 0.05418
vn -0.90453 -0.2007 0.37622
vn -0.84877 -0.32058 0.4205
vn -0.93068 -0.34737 0.11477
vn -0.86297 -0.34561 0.36856
vn -0.84071 -0.50646 0.19157
vn -0.50807 -0.80525 0.30567
vn -0.86721 -0.46565 0.1764
vn -0.61212 -0.78997 -0.03544
vn -0.29204 -0.95343 -0.07539
vn -0.54248 -0.24649 -0.8031
vn -0.66163 0.20871 -0.7202
vn -0.3988 -0.01936 -0.91683
vn -0.6592 0.05514 -0.74994
vn -0.5857 0.52714 -0.61569
vn -0.15799 -0.74427 -0.64892
vn -0.10325 -0.97422 -0.20058
vn 0.18056 -0.89356 -0.41103
vn 0.2815 -0.94749 -0.15174
vn 0.48213 -0.8712 -0.0925
vn 0.51511 -0.80738 -0.28775
vn 0.27132 -0.95946 -0.07628
vn -0.241 -0.96525 -0.10106
vn 0.3313 -0.89458 -0.29995
vn -0.09364 -0.98576 -0.13967
vn 0.06339 -0.99116 0.11653
vn -0.02072 -0.99758 -0.06641
vn -0.43239 -0.89162 0.13438
vn 0.00743 -0.99905 -0.04297
vn -0.56476 -0.79341 0.22704
vn -0.30233 -0.84934 0.43269
vn -0.2517 -0.92381 0.28849
vn -0.76148 -0.64724 -0.03487
vn -0.42594 -0.90014 0.0912
vn -0.30595 -0.75906 -0.57465
vn -0.7777 -0.44747 -0.44153
vn -0.89849 -0.43826 0.02539
vn -0.97039 -0.22291 -0.09307
vn -0.75542 -0.19741 -0.62479
vn -0.72554 -0.09631 -0.68141
vn -0.92369 -0.36099 -0.12843
vn -0.94457 -0.23726 -0.22693
vn -0.9018 -0.35994 -0.23916
vn -0.22233 -0.16841 -0.96032
vn 0.22467 0.92134 -0.31727
vn 0.76375 -0.60861 0.21513
vn 0.95595 0.06009 0.28731
vn 0.89846 -0.31735 0.30341
vn 0.80112 -0.57359 0.17088
vn 0.93218 0.10451 0.34657
vn 0.96783 -0.18255 0.17313
vn 0.77593 0.33299 0.53578
vn 0.86932 0.25349 0.42429
vn 0.72954 0.41077 0.54685
vn 0.85319 0.43741 0.28415
vn 0.79217 0.60831 -0.04922
vn 0.29761 0.8383 0.45682
vn 0.82688 0.43959 -0.35075
vn 0.14655 0.9736 0.17502
vn 0.34815 0.51162 0.78552
vn 0.3452 0.45279 0.82208
vn 0.58882 -0.80813 -0.01497
vn 0.29007 -0.77571 -0.56049
vn -0.32906 0.02344 -0.94402
vn -0.05844 0.12636 -0.99026
vn 0.04523 0.04582 -0.99793
vn 0.16054 0.10429 -0.9815
vn 0.09918 0.16553 -0.98121
vn 0.34956 0.34933 -0.86935
vn -0.25497 0.42423 -0.86892
vn 0.00068 0.42641 -0.90453
vn -0.67745 0.5669 -0.4687
vn -0.46998 0.68084 -0.56177
vn -0.7762 0.60528 -0.17649
vn -0.57908 0.78424 -0.2228
vn 0.3147 0.50965 -0.80076
vn 0.58907 0.44665 -0.67342
vn 0.72642 0.56499 -0.39128
vn -0.22447 0.69853 -0.67947
vn 0.0732 0.58889 -0.80489
vn -0.58931 0.793 0.15448
vn -0.33878 0.80616 -0.48511
vn -0.55951 0.7085 0.43009
vn -0.32808 0.80242 0.49848
vn 0.46654 0.77034 -0.43464
vn 0.14782 0.757 -0.63647
vn -0.10094 0.81051 -0.57696
vn -0.25071 0.94914 -0.19045
vn -0.25968 0.95879 0.11529
vn -0.19254 0.92992 0.31332
vn 0.1909 0.92007 0.3421
vn -0.01563 0.85042 0.52587
vn 0.16739 0.95565 -0.24231
vn 0.16933 0.97872 0.11593
vn 0.50934 0.85801 0.06626
vn 0.78535 0.61889 0.01418
vn 0.4753 0.81663 0.32742
vn 0.79145 0.55094 0.26471
vn 0.50008 0.67238 0.54573
vn 0.75809 0.39697 0.51741
vn 0.4516 0.46821 0.7595
vn 0.22424 0.81426 0.53544
vn 0.20047 0.62513 0.75434
vn 0.77242 0.07136 0.63109
vn 0.89872 0.02323 0.43791
vn 0.9084 -0.08426 0.40953
vn 0.99579 -0.01607 0.09029
vn 0.85589 -0.51555 0.04079
vn 0.80038 -0.58748 -0.11937
vn 0.99926 0.03748 0.00873
vn 0.99671 0.03951 -0.07081
vn 0.9963 -0.08578 0.00594
vn 0.75665 -0.58817 -0.28555
vn 0.96788 -0.17189 -0.18349
vn 0.98943 0.07501 0.12413
vn 0.99547 0.07227 -0.06173
vn 0.97996 0.17257 -0.09949
vn 0.99352 0.0415 -0.10583
vn 0.94686 0.28342 -0.15209
vn 0.9152 0.23685 -0.32606
vn 0.99258 0.0799 -0.09168
vn 0.82061 0.32054 -0.47313
vn 0.93353 0.24618 -0.26062
vn 0.52927 0.3071 -0.79093
vn 0.64846 0.23634 -0.72363
vn -0.20018 -0.29865 -0.93313
vt 0.46563 0.83595
vt 0.35443 0.84391
vt 0.28161 0.78008
vt 0.72679 0.18214
vt 0.69729 0.10409
vt 0.72082 0.16914
vt 0.78135 0.38303
vt 0.74507 0.3639
vt 0.8525 0.43553
vt 0.809 0.39987
vt 0.84058 0.43897
vt 0.87499 0.37858
vt 0.84496 0.37331
vt 0.74466 0.37214
vt 0.64514 0.42091
vt 0.64289 0.36344
vt 0.62505 0.26694
vt 0.82278 0.25951
vt 0.74424 0.25093
vt 0.85955 0.30203
vt 0.87463 0.37705
vt 0.84978 0.27405
vt 0.81906 0.23282
vt 0.80169 0.20277
vt 0.77532 0.18699
vt 0.72168 0.16995
vt 0.66072 0.18714
vt 0.40067 0.7236
vt 0.41334 0.77338
vt 0.31973 0.61647
vt 0.44082 0.67619
vt 0.62021 0.62633
vt 0.5155 0.637
vt 0.83303 0.78264
vt 0.74213 0.7831
vt 0.8013 0.77324
vt 0.86244 0.78353
vt 0.87528 0.80762
vt 0.96075 0.8665
vt 0.92264 0.78062
vt 0.85088 0.73647
vt 0.84606 0.70127
vt 0.88429 0.7236
vt 0.89952 0.66766
vt 0.89728 0.72557
vt 0.91118 0.76632
vt 0.90228 0.65437
vt 0.90066 0.63997
vt 0.91096 0.61634
vt 0.90297 0.5859
vt 0.90897 0.57305
vt 0.91541 0.53438
vt 0.89285 0.61615
vt 0.78079 0.73424
vt 0.81404 0.64607
vt 0.8631 0.66654
vt 0.72853 0.77182
vt 0.75816 0.78519
vt 0.68271 0.7792
vt 0.87063 0.59291
vt 0.75895 0.68727
vt 0.90886 0.54068
vt 0.8812 0.53352
vt 0.90327 0.48261
vt 0.91144 0.50418
vt 0.87204 0.49165
vt 0.78729 0.44848
vt 0.73935 0.44089
vt 0.73111 0.36804
vt 0.67254 0.3648
vt 0.79103 0.5285
vt 0.76759 0.6032
vt 0.7597 0.53211
vt 0.71881 0.63354
vt 0.73967 0.54974
vt 0.69274 0.69094
vt 0.63151 0.74126
vt 0.60125 0.65691
vt 0.6431 0.60619
vt 0.71084 0.51865
vt 0.60097 0.75314
vt 0.64157 0.76442
vt 0.55343 0.74878
vt 0.69479 0.44052
vt 0.53845 0.66714
vt 0.6851 0.52147
vt 0.58105 0.45406
vt 0.59653 0.40146
vt 0.51795 0.46318
vt 0.50506 0.49634
vt 0.63459 0.47869
vt 0.56622 0.50135
vt 0.57314 0.54666
vt 0.57547 0.60894
vt 0.55843 0.62584
vt 0.4799 0.56283
vt 0.49179 0.6029
vt 0.47144 0.53449
vt 0.48031 0.49054
vt 0.47337 0.50856
vt 0.50257 0.44164
vt 0.51566 0.63862
vt 0.485 0.63956
vt 0.49006 0.59566
vt 0.46439 0.69728
vt 0.4854 0.70987
vt 0.53498 0.77374
vt 0.44625 0.75996
vt 0.4756 0.79662
vt 0.40051 0.80917
vt 0.4637 0.69045
vt 0.47887 0.63654
vt 0.46933 0.52975
vt 0.48481 0.55573
vt 0.45897 0.49878
vt 0.4903 0.52323
vt 0.51868 0.5148
vt 0.52711 0.48869
vt 0.55663 0.42069
vt 0.45858 0.68368
vt 0.48842 0.72342
vt 0.46976 0.71049
vt 0.43905 0.62163
vt 0.42719 0.52013
vt 0.38678 0.50673
vt 0.40659 0.68236
vt 0.39133 0.62633
vt 0.37288 0.55815
vt 0.2883 0.6644
vt 0.13946 0.69672
vt 0.31836 0.71694
vt 0.21383 0.8086
vt 0.42892 0.71056
vt 0.34725 0.76477
vt 0.44387 0.81944
vt 0.51043 0.74363
vt 0.5425 0.74439
vt 0.58762 0.75589
vt 0.39854 0.82725
vt 0.54081 0.80705
vt 0.62286 0.77725
vt 0.67048 0.72712
vt 0.69974 0.70415
vt 0.45007 0.85434
vt 0.66428 0.76616
vt 0.7353 0.64077
vt 0.68276 0.7365
vt 0.48058 0.87281
vt 0.45066 0.88686
vt 0.36223 0.8997
vt 0.40521 0.90094
vt 0.31669 0.91274
vt 0.25834 0.90049
vt 0.30422 0.88866
vt 0.14269 0.82265
vt 0.21153 0.88258
vt 0.11894 0.82095
vt 0.16504 0.85551
vt 0.07873 0.77794
vt 0.09179 0.74349
vt 0.05731 0.699
vt 0.02922 0.67412
vt 0.02612 0.61518
vt 0.02313 0.60907
vt 0.03538 0.51855
vt 0.10187 0.63688
vt 0.08818 0.58401
vt 0.21773 0.56695
vt 0.07066 0.49997
vt 0.08152 0.39624
vt 0.06432 0.41887
vt 0.10461 0.37002
vt 0.14579 0.3271
vt 0.22626 0.27709
vt 0.18021 0.3738
vt 0.31746 0.22994
vt 0.29213 0.34672
vt 0.17392 0.45768
vt 0.18326 0.51089
vt 0.30522 0.44302
vt 0.28689 0.38319
vt 0.38653 0.44378
vt 0.44205 0.39211
vt 0.61511 0.31551
vt 0.50659 0.32198
vt 0.62298 0.37637
vt 0.73492 0.34916
vt 0.62784 0.39452
vt 0.52142 0.42507
vt 0.64043 0.38701
vt 0.55624 0.41992
vt 0.49268 0.48199
vt 0.74137 0.38058
vt 0.81728 0.38741
vt 0.837 0.40884
vt 0.88786 0.44314
vt 0.88468 0.48262
vt 0.89558 0.51043
vt 0.88065 0.37446
vt 0.8062 0.32088
vt 0.85069 0.27439
vt 0.73211 0.26846
vt 0.66833 0.22261
vt 0.81379 0.29488
vt 0.76462 0.27317
vt 0.80496 0.24378
vt 0.8194 0.23307
vt 0.8009 0.20281
vt 0.76515 0.22258
vt 0.77601 0.18618
vt 0.72392 0.22966
vt 0.72435 0.2132
vt 0.74455 0.20684
vt 0.63829 0.15108
vt 0.63774 0.07525
vt 0.58858 0.08147
vt 0.57718 0.15279
vt 0.49297 0.17676
vt 0.51343 0.10357
vt 0.40727 0.16258
vt 0.46471 0.30524
vt 0.38562 0.22064
vt 0.35807 0.3061
vt 0.70952 0.37813
vt 0.45507 0.76654
vt 0.90642 0.60958
vt 0.87089 0.67857
vt 0.90004 0.60562
vt 0.91111 0.5635
vt 0.85608 0.60387
vt 0.8832 0.55771
vt 0.80705 0.64519
vt 0.77403 0.66481
vt 0.80533 0.74319
vt 0.84504 0.7183
vt 0.88379 0.74744
vt 0.85182 0.77068
vt 0.91028 0.78624
vt 0.88812 0.80401
vt 0.77834 0.7609
vt 0.6501 0.75679
vt 0.90483 0.54327
vt 0.86662 0.45529
vt 0.55412 0.10103
vt 0.43778 0.17787
vt 0.35083 0.23172
vt 0.18822 0.3181
vt 0.19674 0.35638
vt 0.37116 0.3405
vt 0.55882 0.38681
vt 0.4882 0.41426
vt 0.25881 0.4074
vt 0.35446 0.5035
vt 0.13093 0.40478
vt 0.17721 0.44361
vt 0.07313 0.43185
vt 0.09476 0.46311
vt 0.04131 0.51664
vt 0.06001 0.56022
vt 0.29216 0.5359
vt 0.34425 0.54469
vt 0.32149 0.6539
vt 0.14324 0.49924
vt 0.1784 0.51116
vt 0.0466 0.65714
vt 0.11885 0.57891
vt 0.05847 0.7344
vt 0.12394 0.8071
vt 0.26515 0.64721
vt 0.19148 0.60603
vt 0.14311 0.59101
vt 0.12484 0.62941
vt 0.11953 0.6688
vt 0.12486 0.73054
vt 0.19027 0.74803
vt 0.15938 0.82814
vt 0.18546 0.64565
vt 0.18237 0.68369
vt 0.26022 0.69663
vt 0.31819 0.70058
vt 0.27103 0.7614
vt 0.33972 0.77451
vt 0.29993 0.85568
vt 0.37958 0.85127
vt 0.32826 0.89239
vt 0.21697 0.84212
vt 0.2427 0.87737
vt 0.34797 0.86571
vt 0.4904 0.85974
vt 0.58121 0.78655
vt 0.51881 0.78021
vt 0.67705 0.67848
vt 0.59012 0.73216
vt 0.73557 0.6376
vt 0.67729 0.62685
vt 0.66945 0.60657
vt 0.78748 0.59421
vt 0.6054 0.58646
vt 0.40892 0.60187
vt 0.51948 0.52284
vt 0.38801 0.44412
vt 0.36299 0.63996
vt 0.32645 0.65341
vt 0.39145 0.52897
vt 0.3351 0.3433
vt 0.32506 0.40868
vt 0.36169 0.24188
vt 0.31768 0.27266
vt 0.34123 0.56499
vt 0.292 0.42785
vt 0.25836 0.33985
vt 0.26471 0.45629
vt 0.31406 0.6674
vt 0.16352 0.74156
vt 0.13119 0.67751
vt 0.27381 0.60701
vt 0.11718 0.57533
vt 0.20882 0.48618
vt 0.10659 0.51961
vt 0.17348 0.42002
vt 0.19309 0.32828
vt 0.14386 0.38997
vt 0.07225 0.49914
vt 0.34383 0.54341
vt 0.31747 0.70173
vt 0.56991 0.35018
vt 0.547 0.41658
vt 0.57005 0.42147
vt 0.58818 0.41358
vt 0.61924 0.35917
vt 0.56901 0.3467
vt 0.62904 0.25726
vt 0.53062 0.29291
vt 0.68927 0.15006
vt 0.53463 0.18433
vt 0.67961 0.11212
vt 0.60112 0.10418
vt 0.6954 0.37415
vt 0.73809 0.37804
vt 0.27478 0.78185
vt 0.32922 0.78373
vt 0.42572 0.84802
vt 0.74121 0.38125
usemtl mat0
f 1/1/1 2/2/2 3/3/3
f 4/4/4 5/5/5 6/6/6
f 7/7/7 8/8/8 9/9/9
f 10/10/10 9/9/9 8/8/8
f 11/11/11 12/12/12 13/13/13
f 13/13/13 14/14/14 11/11/11
f 14/14/14 15/15/15 11/11/11
f 16/16/16 15/15/15 14/14/14
f 17/17/17 16/16/16 14/14/14
f 14/14/14 13/13/13 18/18/18
f 14/14/14 19/19/19 17/17/17
f 14/14/14 18/18/18 19/19/19
f 20/20/20 18/18/18 13/13/13
f 20/20/20 13/13/13 21/21/12
f 22/22/21 18/18/18 20/20/20
f 22/22/21 23/23/22 18/18/18
f 24/24/23 18/18/18 23/23/22
f 24/24/23 19/19/19 18/18/18
f 24/24/23 25/25/24 19/19/19
f 19/19/19 25/25/24 26/26/6
f 26/26/6 17/17/17 19/19/19
f 26/26/6 27/27/5 17/17/17
f 28/28/25 29/29/2 30/30/26
f 30/30/26 31/31/27 28/28/25
f 32/32/28 31/31/27 30/30/26
f 32/32/28 33/33/29 31/31/27
f 34/34/30 35/35/31 36/36/32
f 34/34/30 36/36/32 37/37/33
f 34/34/30 37/37/33 38/38/34
f 38/38/34 37/37/33 39/39/35
f 40/40/36 39/39/35 37/37/33
f 41/41/37 40/40/36 37/37/33
f 37/37/33 36/36/32 41/41/37
f 36/36/32 42/42/38 41/41/37
f 40/40/36 41/41/37 43/43/39
f 41/41/37 44/44/40 43/43/39
f 41/41/37 42/42/38 44/44/40
f 45/45/41 43/43/39 44/44/40
f 43/43/39 45/45/41 46/46/42
f 45/45/41 44/44/40 47/47/43
f 42/42/38 48/48/44 44/44/40
f 48/48/44 49/49/45 44/44/40
f 50/50/46 49/49/45 48/48/44
f 50/50/46 51/51/47 49/49/45
f 52/52/48 51/51/47 50/50/46
f 48/48/44 42/42/38 53/53/49
f 48/48/44 53/53/49 50/50/46
f 42/42/38 36/36/32 54/54/50
f 55/55/51 42/42/38 54/54/50
f 53/53/49 42/42/38 56/56/52
f 55/55/51 56/56/52 42/42/38
f 53/53/49 56/56/52 55/55/51
f 36/36/32 57/57/53 54/54/50
f 58/58/54 57/57/53 36/36/32
f 57/57/53 58/58/54 59/59/55
f 60/60/56 50/50/46 53/53/49
f 60/60/56 53/53/49 55/55/51
f 54/54/50 61/61/57 55/55/51
f 54/54/50 57/57/53 61/61/57
f 50/50/46 62/62/58 52/52/48
f 60/60/56 63/63/59 50/50/46
f 63/63/59 62/62/58 50/50/46
f 52/52/48 62/62/58 64/64/60
f 52/52/48 64/64/60 65/65/61
f 66/66/62 64/64/60 62/62/58
f 63/63/59 66/66/62 62/62/58
f 66/66/62 9/9/9 64/64/60
f 9/9/9 66/66/62 67/67/63
f 67/67/63 66/66/62 63/63/59
f 7/7/7 9/9/9 67/67/63
f 7/7/7 67/67/63 68/68/64
f 69/69/65 7/7/7 68/68/64
f 68/68/64 70/70/66 69/69/65
f 71/71/67 63/63/59 60/60/56
f 71/71/67 67/67/63 63/63/59
f 71/71/67 60/60/56 72/72/68
f 72/72/68 60/60/56 55/55/51
f 67/67/63 71/71/67 73/73/69
f 67/67/63 73/73/69 68/68/64
f 73/73/69 71/71/67 72/72/68
f 72/72/68 55/55/51 74/74/70
f 74/74/70 55/55/51 61/61/57
f 75/75/71 73/73/69 72/72/68
f 75/75/71 68/68/64 73/73/69
f 75/75/71 72/72/68 74/74/70
f 74/74/70 61/61/57 76/76/72
f 76/76/72 61/61/57 57/57/53
f 76/76/72 57/57/53 77/77/73
f 77/77/73 57/57/53 59/59/55
f 76/76/72 78/78/74 74/74/70
f 76/76/72 77/77/73 78/78/74
f 74/74/70 79/79/75 75/75/71
f 74/74/70 78/78/74 79/79/75
f 75/75/71 80/80/76 68/68/64
f 75/75/71 79/79/75 80/80/76
f 77/77/73 59/59/55 81/81/77
f 82/82/78 81/81/77 59/59/55
f 82/82/78 83/83/79 81/81/77
f 80/80/76 84/84/80 68/68/64
f 84/84/80 70/70/66 68/68/64
f 81/81/77 85/85/81 77/77/73
f 77/77/73 85/85/81 78/78/74
f 79/79/75 86/86/82 80/80/76
f 80/80/76 86/86/82 84/84/80
f 87/87/83 70/70/66 84/84/80
f 87/87/83 88/88/84 70/70/66
f 88/88/84 87/87/83 89/89/85
f 87/87/83 90/90/86 89/89/85
f 87/87/83 84/84/80 91/91/87
f 91/91/87 84/84/80 86/86/82
f 91/91/87 92/92/88 87/87/83
f 91/91/87 86/86/82 92/92/88
f 87/87/83 92/92/88 90/90/86
f 92/92/88 86/86/82 93/93/89
f 93/93/89 86/86/82 79/79/75
f 90/90/86 92/92/88 93/93/89
f 79/79/75 78/78/74 94/94/90
f 93/93/89 79/79/75 94/94/90
f 78/78/74 85/85/81 95/95/91
f 94/94/90 78/78/74 95/95/91
f 96/96/92 93/93/89 94/94/90
f 96/96/92 90/90/86 93/93/89
f 97/97/93 94/94/90 95/95/91
f 97/97/93 96/96/92 94/94/90
f 90/90/86 96/96/92 98/98/94
f 97/97/93 98/98/94 96/96/92
f 98/98/94 99/99/95 90/90/86
f 98/98/94 100/100/96 99/99/95
f 99/99/95 101/101/85 90/90/86
f 102/102/97 97/97/93 95/95/91
f 102/102/97 95/95/91 85/85/81
f 102/102/97 103/103/98 97/97/93
f 103/103/98 104/104/99 97/97/93
f 102/102/97 85/85/81 105/105/100
f 103/103/98 102/102/97 105/105/100
f 85/85/81 106/106/101 105/105/100
f 81/81/77 106/106/101 85/85/81
f 81/81/77 107/107/102 106/106/101
f 107/107/102 108/108/103 106/106/101
f 108/108/103 105/105/100 106/106/101
f 107/107/102 109/109/104 108/108/103
f 109/109/104 110/110/105 108/108/103
f 108/108/103 111/111/106 105/105/100
f 103/103/98 105/105/100 111/111/106
f 103/103/98 112/112/107 104/104/99
f 103/103/98 111/111/106 112/112/107
f 113/113/108 104/104/99 112/112/107
f 104/104/99 113/113/108 114/114/109
f 114/114/109 113/113/108 115/115/110
f 114/114/109 115/115/110 116/116/111
f 116/116/111 115/115/110 117/117/112
f 115/115/110 118/118/113 117/117/112
f 119/119/114 118/118/113 115/115/110
f 112/112/107 111/111/106 120/120/115
f 120/120/115 111/111/106 121/121/116
f 121/121/116 122/122/117 120/120/115
f 113/113/108 112/112/107 123/123/118
f 120/120/115 123/123/118 112/112/107
f 115/115/110 113/113/108 124/124/119
f 113/113/108 123/123/118 124/124/119
f 115/115/110 124/124/119 125/125/120
f 120/120/115 126/126/121 123/123/118
f 126/126/121 120/120/115 122/122/117
f 127/127/122 124/124/119 123/123/118
f 126/126/121 127/127/122 123/123/118
f 127/127/122 128/128/123 124/124/119
f 128/128/123 125/125/120 124/124/119
f 128/128/123 127/127/122 129/129/124
f 126/126/121 129/129/124 127/127/122
f 128/128/123 129/129/124 125/125/120
f 130/130/125 125/125/120 129/129/124
f 126/126/121 131/131/126 129/129/124
f 130/130/125 129/129/124 131/131/126
f 130/130/125 131/131/126 132/132/127
f 126/126/121 122/122/117 133/133/128
f 133/133/128 131/131/126 126/126/121
f 134/134/129 132/132/127 131/131/126
f 133/133/128 134/134/129 131/131/126
f 135/135/130 134/134/129 133/133/128
f 122/122/117 136/136/131 133/133/128
f 133/133/128 136/136/131 135/135/130
f 122/122/117 83/83/79 136/136/131
f 137/137/132 135/135/130 136/136/131
f 135/135/130 137/137/132 138/138/133
f 139/139/134 132/132/127 134/134/129
f 135/135/130 139/139/134 134/134/129
f 135/135/130 138/138/133 140/140/135
f 140/140/135 138/138/133 141/141/136
f 142/142/137 141/141/136 138/138/133
f 143/143/138 141/141/136 142/142/137
f 144/144/139 135/135/130 140/140/135
f 139/139/134 135/135/130 144/144/139
f 141/141/136 144/144/139 140/140/135
f 143/143/138 145/145/140 141/141/136
f 146/146/141 145/145/140 143/143/138
f 146/146/141 147/147/142 145/145/140
f 145/145/140 148/148/143 141/141/136
f 141/141/136 148/148/143 149/149/144
f 141/141/136 149/149/144 144/144/139
f 149/149/144 150/150/145 144/144/139
f 150/150/145 139/139/134 144/144/139
f 151/151/146 150/150/145 149/149/144
f 151/151/146 152/152/147 150/150/145
f 152/152/147 153/153/148 150/150/145
f 150/150/145 154/154/149 139/139/134
f 154/154/149 150/150/145 153/153/148
f 139/139/134 154/154/149 132/132/127
f 153/153/148 132/132/127 154/154/149
f 153/153/148 155/155/150 132/132/127
f 156/156/151 155/155/150 153/153/148
f 156/156/151 157/157/152 155/155/150
f 157/157/152 156/156/151 158/158/153
f 155/155/150 157/157/152 159/159/154
f 160/160/155 132/132/127 155/155/150
f 159/159/154 160/160/155 155/155/150
f 160/160/155 130/130/125 132/132/127
f 160/160/155 159/159/154 161/161/156
f 161/161/156 130/130/125 160/160/155
f 162/162/157 161/161/156 159/159/154
f 162/162/157 163/163/158 161/161/156
f 163/163/158 162/162/157 164/164/159
f 164/164/159 165/165/160 163/163/158
f 161/161/156 166/166/161 130/130/125
f 167/167/162 161/161/156 163/163/158
f 166/166/161 161/161/156 167/167/162
f 130/130/125 166/166/161 168/168/163
f 167/167/162 168/168/163 166/166/161
f 130/130/125 168/168/163 125/125/120
f 163/163/158 165/165/160 169/169/164
f 169/169/164 167/167/162 163/163/158
f 165/165/160 170/170/165 169/169/164
f 165/165/160 171/171/166 170/170/165
f 172/172/167 170/170/165 171/171/166
f 172/172/167 173/173/168 170/170/165
f 173/173/168 174/174/169 170/170/165
f 175/175/170 170/170/165 174/174/169
f 169/169/164 170/170/165 175/175/170
f 176/176/171 175/175/170 174/174/169
f 176/176/171 177/177/172 175/175/170
f 169/169/164 175/175/170 178/178/173
f 167/167/162 169/169/164 178/178/173
f 178/178/173 175/175/170 177/177/172
f 167/167/162 179/179/174 168/168/163
f 167/167/162 178/178/173 179/179/174
f 180/180/175 168/168/163 179/179/174
f 179/179/174 178/178/173 180/180/175
f 180/180/175 125/125/120 168/168/163
f 178/178/173 181/181/176 180/180/175
f 178/178/173 177/177/172 181/181/176
f 180/180/175 182/182/177 125/125/120
f 180/180/175 181/181/176 182/182/177
f 115/115/110 125/125/120 182/182/177
f 182/182/177 183/183/178 115/115/110
f 182/182/177 181/181/176 183/183/178
f 119/119/114 115/115/110 183/183/178
f 183/183/178 184/184/179 119/119/114
f 185/185/180 183/183/178 181/181/176
f 185/185/180 181/181/176 177/177/172
f 183/183/178 185/185/180 184/184/179
f 186/186/181 119/119/114 184/184/179
f 184/184/179 187/187/182 186/186/181
f 119/119/114 186/186/181 188/188/183
f 187/187/182 188/188/183 186/186/181
f 119/119/114 188/188/183 189/189/184
f 189/189/184 188/188/183 190/190/185
f 189/189/184 190/190/185 191/191/186
f 99/99/95 189/189/184 191/191/186
f 99/99/95 192/192/187 189/189/184
f 187/187/182 193/193/188 188/188/183
f 193/193/188 187/187/182 194/194/189
f 193/193/188 194/194/189 195/195/190
f 195/195/190 194/194/189 196/196/191
f 195/195/190 196/196/191 197/197/192
f 195/195/190 197/197/192 198/198/193
f 199/199/194 196/196/191 194/194/189
f 199/199/194 194/194/189 200/200/195
f 200/200/195 194/194/189 187/187/182
f 199/199/194 200/200/195 201/201/196
f 187/187/182 202/202/197 200/200/195
f 203/203/198 202/202/197 187/187/182
f 203/203/198 187/187/182 184/184/179
f 201/201/196 200/200/195 204/204/199
f 205/205/200 200/200/195 202/202/197
f 205/205/200 204/204/199 200/200/195
f 206/206/201 201/201/196 204/204/199
f 206/206/201 207/207/22 201/201/196
f 208/208/23 207/207/22 206/206/201
f 209/209/202 206/206/201 204/204/199
f 206/206/201 209/209/202 208/208/23
f 204/204/199 205/205/200 209/209/202
f 209/209/202 210/210/24 208/208/23
f 205/205/200 202/202/197 211/211/203
f 211/211/203 202/202/197 203/203/198
f 205/205/200 211/211/203 212/212/204
f 205/205/200 212/212/204 209/209/202
f 212/212/204 211/211/203 203/203/198
f 210/210/24 209/209/202 213/213/205
f 212/212/204 213/213/205 209/209/202
f 210/210/24 213/213/205 6/6/6
f 4/4/4 6/6/6 213/213/205
f 212/212/204 4/4/4 213/213/205
f 212/212/204 5/5/5 4/4/4
f 5/5/5 212/212/204 203/203/198
f 214/214/206 5/5/5 203/203/198
f 214/214/206 215/215/207 5/5/5
f 203/203/198 184/184/179 214/214/206
f 216/216/208 215/215/207 214/214/206
f 184/184/179 217/217/209 214/214/206
f 216/216/208 214/214/206 217/217/209
f 184/184/179 185/185/180 217/217/209
f 216/216/208 217/217/209 218/218/210
f 216/216/208 218/218/210 219/219/211
f 218/218/210 220/220/212 219/219/211
f 217/217/209 185/185/180 221/221/213
f 217/217/209 221/221/213 218/218/210
f 221/221/213 185/185/180 177/177/172
f 218/218/210 222/222/214 220/220/212
f 222/222/214 176/176/171 220/220/212
f 222/222/214 177/177/172 176/176/171
f 223/223/215 218/218/210 221/221/213
f 223/223/215 222/222/214 218/218/210
f 222/222/214 223/223/215 177/177/172
f 221/221/213 177/177/172 223/223/215
f 224/224/216 8/8/8 7/7/7
f 224/224/216 188/188/183 8/8/8
f 83/83/79 122/122/117 121/121/116
f 83/83/79 121/121/116 107/107/102
f 81/81/77 83/83/79 107/107/102
f 107/107/102 121/121/116 225/225/217
f 109/109/104 107/107/102 225/225/217
f 111/111/106 225/225/217 121/121/116
f 109/109/104 225/225/217 110/110/105
f 108/108/103 225/225/217 111/111/106
f 110/110/105 225/225/217 108/108/103
f 49/49/45 47/47/43 44/44/40
f 49/49/45 226/226/218 47/47/43
f 51/51/47 226/226/218 49/49/45
f 226/226/218 227/227/219 47/47/43
f 227/227/219 45/45/41 47/47/43
f 226/226/218 228/228/220 227/227/219
f 228/228/220 226/226/218 229/229/221
f 229/229/221 230/230/222 228/228/220
f 227/227/219 228/228/220 230/230/222
f 229/229/221 231/231/223 230/230/222
f 227/227/219 230/230/222 232/232/224
f 227/227/219 232/232/224 233/233/225
f 232/232/224 146/146/141 233/233/225
f 146/146/141 143/143/138 233/233/225
f 233/233/225 143/143/138 234/234/226
f 142/142/137 234/234/226 143/143/138
f 227/227/219 233/233/225 235/235/227
f 233/233/225 234/234/226 235/235/227
f 236/236/228 45/45/41 227/227/219
f 235/235/227 236/236/228 227/227/219
f 234/234/226 237/237/229 235/235/227
f 236/236/228 235/235/227 237/237/229
f 45/45/41 236/236/228 238/238/230
f 46/46/42 45/45/41 238/238/230
f 236/236/228 239/239/231 238/238/230
f 236/236/228 237/237/229 239/239/231
f 237/237/229 234/234/226 240/240/232
f 142/142/137 240/240/232 234/234/226
f 46/46/42 238/238/230 39/39/35
f 238/238/230 239/239/231 39/39/35
f 40/40/36 46/46/42 39/39/35
f 40/40/36 43/43/39 46/46/42
f 39/39/35 239/239/231 38/38/34
f 34/34/30 38/38/34 239/239/231
f 237/237/229 34/34/30 239/239/231
f 237/237/229 240/240/232 34/34/30
f 240/240/232 241/241/233 34/34/30
f 240/240/232 142/142/137 241/241/233
f 34/34/30 241/241/233 35/35/31
f 142/142/137 137/137/132 241/241/233
f 142/142/137 138/138/133 137/137/132
f 136/136/131 241/241/233 137/137/132
f 136/136/131 82/82/78 241/241/233
f 82/82/78 35/35/31 241/241/233
f 136/136/131 83/83/79 82/82/78
f 59/59/55 35/35/31 82/82/78
f 58/58/54 35/35/31 59/59/55
f 36/36/32 35/35/31 58/58/54
f 226/226/218 51/51/47 229/229/221
f 229/229/221 51/51/47 242/242/234
f 9/9/9 10/10/10 243/243/235
f 64/64/60 9/9/9 243/243/235
f 243/243/235 65/65/61 64/64/60
f 243/243/235 198/198/193 65/65/61
f 243/243/235 195/195/190 198/198/193
f 198/198/193 242/242/234 65/65/61
f 197/197/192 242/242/234 198/198/193
f 242/242/234 197/197/192 229/229/221
f 65/65/61 242/242/234 51/51/47
f 51/51/47 52/52/48 65/65/61
f 244/244/17 5/5/5 215/215/207
f 216/216/208 244/244/17 215/215/207
f 216/216/208 219/219/211 244/244/17
f 219/219/211 245/245/16 244/244/17
f 219/219/211 220/220/212 245/245/16
f 246/246/15 245/245/16 220/220/212
f 246/246/15 220/220/212 176/176/171
f 176/176/171 247/247/236 246/246/15
f 176/176/171 174/174/169 247/247/236
f 247/247/236 174/174/169 173/173/168
f 247/247/236 173/173/168 172/172/167
f 246/246/15 247/247/236 248/248/237
f 172/172/167 248/248/237 247/247/236
f 246/246/15 248/248/237 249/249/238
f 246/246/15 249/249/238 250/250/11
f 251/251/239 250/250/11 249/249/238
f 249/249/238 252/252/240 251/251/239
f 248/248/237 252/252/240 249/249/238
f 253/253/241 251/251/239 252/252/240
f 172/172/167 254/254/242 248/248/237
f 252/252/240 248/248/237 254/254/242
f 252/252/240 255/255/243 253/253/241
f 252/252/240 254/254/242 255/255/243
f 256/256/244 254/254/242 172/172/167
f 172/172/167 171/171/166 256/256/244
f 256/256/244 257/257/245 254/254/242
f 255/255/243 254/254/242 257/257/245
f 171/171/166 258/258/246 256/256/244
f 257/257/245 256/256/244 258/258/246
f 257/257/245 258/258/246 259/259/247
f 258/258/246 171/171/166 165/165/160
f 258/258/246 165/165/160 164/164/159
f 259/259/247 258/258/246 164/164/159
f 260/260/248 253/253/241 255/255/243
f 261/261/249 253/253/241 260/260/248
f 260/260/248 262/262/250 261/261/249
f 255/255/243 257/257/245 263/263/251
f 263/263/251 257/257/245 259/259/247
f 263/263/251 264/264/252 255/255/243
f 260/260/248 255/255/243 264/264/252
f 259/259/247 164/164/159 265/265/253
f 265/265/253 164/164/159 162/162/157
f 266/266/254 264/264/252 263/263/251
f 263/263/251 259/259/247 266/266/254
f 265/265/253 162/162/157 267/267/255
f 159/159/154 267/267/255 162/162/157
f 159/159/154 157/157/152 267/267/255
f 268/268/256 267/267/255 157/157/152
f 268/268/256 265/265/253 267/267/255
f 268/268/256 157/157/152 158/158/153
f 260/260/248 269/269/257 262/262/250
f 260/260/248 264/264/252 270/270/258
f 260/260/248 270/270/258 269/269/257
f 266/266/254 271/271/259 264/264/252
f 264/264/252 271/271/259 270/270/258
f 272/272/260 271/271/259 266/266/254
f 259/259/247 272/272/260 266/266/254
f 272/272/260 270/270/258 271/271/259
f 273/273/261 259/259/247 265/265/253
f 273/273/261 272/272/260 259/259/247
f 268/268/256 274/274/262 265/265/253
f 265/265/253 274/274/262 273/273/261
f 273/273/261 274/274/262 275/275/263
f 274/274/262 268/268/256 276/276/264
f 276/276/264 275/275/263 274/274/262
f 276/276/264 268/268/256 158/158/153
f 272/272/260 277/277/265 270/270/258
f 277/277/265 269/269/257 270/270/258
f 278/278/266 272/272/260 273/273/261
f 278/278/266 277/277/265 272/272/260
f 269/269/257 277/277/265 278/278/266
f 273/273/261 275/275/263 278/278/266
f 269/269/257 278/278/266 279/279/267
f 279/279/267 278/278/266 275/275/263
f 262/262/250 269/269/257 279/279/267
f 262/262/250 279/279/267 280/280/268
f 280/280/268 279/279/267 281/281/269
f 279/279/267 275/275/263 281/281/269
f 280/280/268 281/281/269 282/282/270
f 282/282/270 281/281/269 283/283/271
f 275/275/263 283/283/271 281/281/269
f 282/282/270 283/283/271 284/284/272
f 284/284/272 283/283/271 285/285/273
f 286/286/274 283/283/271 275/275/263
f 276/276/264 286/286/274 275/275/263
f 158/158/153 286/286/274 276/276/264
f 283/283/271 286/286/274 287/287/275
f 158/158/153 287/287/275 286/286/274
f 283/283/271 287/287/275 285/285/273
f 156/156/151 287/287/275 158/158/153
f 156/156/151 152/152/147 287/287/275
f 152/152/147 285/285/273 287/287/275
f 152/152/147 156/156/151 153/153/148
f 152/152/147 151/151/146 285/285/273
f 288/288/272 285/285/273 151/151/146
f 151/151/146 1/1/1 288/288/272
f 151/151/146 289/289/276 1/1/1
f 289/289/276 151/151/146 148/148/143
f 149/149/144 148/148/143 151/151/146
f 289/289/276 290/290/277 1/1/1
f 1/1/1 290/290/277 291/291/2
f 289/289/276 148/148/143 147/147/142
f 290/290/277 289/289/276 147/147/142
f 147/147/142 148/148/143 145/145/140
f 147/147/142 292/292/26 290/290/277
f 292/292/26 293/293/2 290/290/277
f 294/294/141 292/292/26 147/147/142
f 294/294/141 295/295/278 292/292/26
f 292/292/26 295/295/278 32/32/28
f 294/294/141 296/296/222 295/295/278
f 296/296/222 32/32/28 295/295/278
f 294/294/141 297/297/224 296/296/222
f 33/33/29 32/32/28 296/296/222
f 33/33/29 296/296/222 298/298/223
f 299/299/279 33/33/29 298/298/223
f 299/299/279 298/298/223 300/300/280
f 301/301/281 299/299/279 300/300/280
f 302/302/282 33/33/29 299/299/279
f 299/299/279 303/303/283 302/302/282
f 302/302/282 31/31/27 33/33/29
f 303/303/283 31/31/27 302/302/282
f 303/303/283 28/28/25 31/31/27
f 301/301/281 304/304/284 299/299/279
f 304/304/284 303/303/283 299/299/279
f 304/304/284 301/301/281 305/305/285
f 304/304/284 305/305/285 306/306/286
f 307/307/21 306/306/286 305/305/285
f 307/307/21 308/308/20 306/306/286
f 306/306/286 309/309/287 304/304/284
f 304/304/284 309/309/287 303/303/283
f 310/310/288 306/306/286 308/308/20
f 306/306/286 310/310/288 309/309/287
f 310/310/288 308/308/20 311/311/12
f 310/310/288 312/312/289 309/309/287
f 309/309/287 312/312/289 303/303/283
f 310/310/288 311/311/12 312/312/289
f 28/28/25 303/303/283 313/313/290
f 312/312/289 313/313/290 303/303/283
f 313/313/290 3/3/3 28/28/25
f 3/3/3 29/29/2 28/28/25
f 313/313/290 314/314/291 3/3/3
f 315/315/292 314/314/291 313/313/290
f 315/315/292 313/313/290 316/316/293
f 312/312/289 316/316/293 313/313/290
f 316/316/293 317/317/294 315/315/292
f 312/312/289 318/318/295 316/316/293
f 316/316/293 318/318/295 317/317/294
f 311/311/12 318/318/295 312/312/289
f 318/318/295 319/319/296 317/317/294
f 311/311/12 320/320/297 318/318/295
f 318/318/295 320/320/297 319/319/296
f 321/321/11 320/320/297 311/311/12
f 321/321/11 322/322/239 320/320/297
f 319/319/296 320/320/297 322/322/239
f 319/319/296 322/322/239 323/323/241
f 253/253/241 317/317/294 319/319/296
f 253/253/241 324/324/249 317/317/294
f 324/324/249 315/315/292 317/317/294
f 324/324/249 262/262/250 315/315/292
f 262/262/250 314/314/291 315/315/292
f 262/262/250 325/325/268 314/314/291
f 282/282/270 314/314/291 325/325/268
f 282/282/270 3/3/3 314/314/291
f 326/326/280 327/327/223 328/328/221
f 326/326/280 328/328/221 329/329/192
f 330/330/191 331/331/280 329/329/192
f 332/332/194 331/331/280 330/330/191
f 332/332/194 333/333/281 331/331/280
f 334/334/196 333/333/281 332/332/194
f 334/334/196 335/335/285 333/333/281
f 336/336/22 335/335/285 334/334/196
f 336/336/22 337/337/21 335/335/285
f 118/118/113 119/119/114 189/189/184
f 118/118/113 189/189/184 192/192/187
f 118/118/113 192/192/187 116/116/111
f 118/118/113 116/116/111 117/117/112
f 116/116/111 192/192/187 100/100/96
f 100/100/96 192/192/187 99/99/95
f 100/100/96 114/114/109 116/116/111
f 100/100/96 98/98/94 114/114/109
f 98/98/94 104/104/99 114/114/109
f 98/98/94 97/97/93 104/104/99
f 188/188/183 224/224/216 190/190/185
f 338/338/298 190/190/185 224/224/216
f 224/224/216 69/69/65 338/338/298
f 224/224/216 7/7/7 69/69/65
f 70/70/66 338/338/298 69/69/65
f 70/70/66 190/190/185 338/338/298
f 88/88/84 190/190/185 70/70/66
f 88/88/84 191/191/186 190/190/185
f 101/101/85 191/191/186 88/88/84
f 101/101/85 99/99/95 191/191/186
f 188/188/183 339/339/188 8/8/8
f 10/10/10 8/8/8 339/339/188
f 288/288/272 340/340/3 341/341/270
f 288/288/272 342/342/1 340/340/3
f 10/10/10 195/195/190 243/243/235
f 10/10/10 343/343/188 195/195/190
# Vertices: 343, normals: 298, texture coordinates: 343, faces: 592

# whiskers_1
o obj2
v -73.35900068 103.73083104 117.93224269
v -109.05716419 116.52294679 94.47816303
v -101.41639709 85.91424549 95.94338497
v -90.90597034 138.19672838 118.83001005
v -51.02975368 135.76088357 141.13621458
v -100.06484985 141.84200036 58.71744922
v -60.39122343 152.31160277 139.21962256
v -82.28905797 154.5771383 92.51591971
v -61.33534312 161.87580866 128.25439178
v -11.00420058 118.27570162 167.66338588
v 26.011011 103.51937435 190.89695871
v 35.32753289 123.97952926 198.99777252
v -13.08822334 145.3223485 175.43190194
v -30.14169931 131.66937303 150.41996102
v 47.44423032 147.35656146 181.82947055
v -38.9193207 147.7333992 158.19730167
v 3.22575569 156.5887324 166.1919152
v -32.70557225 163.14576471 155.05894588
vn -0.54814 -0.80441 -0.22905
vn -0.80045 -0.57679 0.16307
vn -0.58966 -0.77669 -0.22147
vn -0.74657 -0.6135 0.25737
vn -0.48512 -0.84113 -0.23907
vn -0.80391 -0.15727 0.57358
vn -0.65816 -0.72559 0.20085
vn -0.75617 -0.22262 0.61535
vn -0.65152 -0.33842 0.67896
vn -0.58332 -0.7625 -0.27986
vn -0.53308 -0.82353 -0.19396
vn -0.36318 -0.89542 0.25753
vn -0.42654 -0.87274 0.23746
vn -0.64218 -0.65512 -0.39803
vn -0.10119 -0.74943 0.6543
vn -0.61531 -0.78824 -0.00839
vn -0.09711 -0.73397 0.67221
vn -0.36866 -0.78732 0.49418
vt 0.34313 0.08825
vt 0.07435 0.24568
vt 0.12575 -0.04839
vt 0.26865 0.41614
vt 0.50974 0.42801
vt 0.02295 0.53975
vt 0.46295 0.5866
vt 0.2194 0.64301
vt 0.41585 0.74628
vt 0.34473 0.16322
vt 0.13835 0.02249
vt 0.06907 0.22236
vt 0.31687 0.43628
vt 0.51252 0.34697
vt 0.1021 0.63365
vt 0.4875 0.50248
vt 0.29109 0.67441
vt 0.46231 0.65907
usemtl mat1
f 344/344/299 345/345/300 346/346/301
f 344/344/299 347/347/302 345/345/300
f 348/348/303 347/347/302 344/344/299
f 347/347/302 349/349/304 345/345/300
f 348/348/303 350/350/305 347/347/302
f 347/347/302 351/351/306 349/349/304
f 350/350/305 351/351/306 347/347/302
f 350/350/305 352/352/307 351/351/306
f 353/353/308 354/354/309 355/355/310
f 353/353/308 355/355/310 356/356/311
f 357/357/312 353/353/308 356/356/311
f 356/356/311 355/355/310 358/358/313
f 357/357/312 356/356/311 359/359/314
f 356/356/311 358/358/313 360/360/315
f 359/359/314 356/356/311 361/361/316
f 356/356/311 360/360/315 361/361/316
# Vertices: 18, normals: 18, texture coordinates: 18, faces: 16

